# xmcd
# 
# Track frame offsets:
#     150
#     14817
#     29480
#     50840
#     65502
# 
# Disc length: 1156
# 
# Revision: 1
# Processed by: cddbd v1.5.2PL0 Copyright (c) Steve Scherf et al.
# Submitted via: fre:ac v1.0.27
# 
DISCID=48048205
DTITLE=夜木沼伊緒(花澤花菜) - 未来系ストライカーズ／アルタイル・トルテ
DYEAR=2017
DGENRE=Anime
TTITLE0=未来系ストライカーズ／アルタイル・トルテ
TTITLE1=未来系ストライカーズ／夜木沼伊緒(CV:花澤花菜)
TTITLE2=青春スパイク！／夜木沼伊緒(CV:花澤花菜)
TTITLE3=未来系ストライカーズ(instrument)
TTITLE4=青春スパイク！(instrument)
EXTD=TVアニメ「スクールガールストライカーズ ANIMATION CHANNEL」オープニングテーマ
EXTT0=
EXTT1=
EXTT2=
EXTT3=
EXTT4=
PLAYORDER=
